#!OML:ASF Y:\EmotionMaleHayes\Project 1\Capture day 1\Session 1\Male1.ASF
:FULLY-SPECIFIED
:DEGREES
1
root -30.3492 17.0723 1.13905 20.7673 84.7367 20.5079
lowerback 4.65727 1.64003 -5.43107
upperback 0.967774 1.93733 0.0418277
thorax -1.79383 1.00194 2.96711
lowerneck -22.3319 2.51666 4.82138
upperneck 28.1257 3.24334 -3.29592
head 13.3386 1.60807 -1.50243
rclavicle 4.35152e-015 -1.98785e-016
rhumerus 0 0 0
rradius 0
rwrist 0
rhand 0 0
rfingers 0
rthumb 0 0
lclavicle 4.35152e-015 -1.98785e-016
lhumerus 0 0 0
lradius 0
lwrist 0
lhand 0 0
lfingers 0
lthumb 0 0
rfemur 6.70565 -3.2802 14.8214
rtibia 3.63405
rfoot -15.3163 -3.24265
rtoes 12.938
lfemur 11.0021 2.79696 -18.606
ltibia -0.752621
lfoot -14.5251 18.8616
ltoes -8.98626
2
root -30.3452 17.0748 1.14073 21.7132 84.7337 21.4851
lowerback 4.7456 1.5707 -5.64755
upperback 0.953696 1.82941 0.10973
thorax -1.85664 0.9513 3.1636
lowerneck -22.8072 2.47358 4.23701
upperneck 28.5884 3.22863 -2.76274
head 13.6084 1.61202 -1.19442
rclavicle -6.78353e-015 7.90169e-015
rhumerus 0 0 0
rradius 0
rwrist 0
rhand 0 0
rfingers 0
rthumb 0 0
lclavicle -6.78353e-015 7.90169e-015
lhumerus 0 0 0
lradius 0
lwrist 0
lhand 0 0
lfingers 0
lthumb 0 0
rfemur 6.94848 -4.01108 14.4624
rtibia 3.30498
rfoot -15.0902 -2.54126
rtoes 13.38
lfemur 11.0262 2.82696 -18.7087
ltibia -0.710979
lfoot -14.5026 18.8376
ltoes -9.76187
3
root -30.3431 17.0751 1.14371 23.0684 84.6984 22.8353
lowerback 4.78535 1.5501 -5.89293
upperback 0.938516 1.78717 0.138941
thorax -1.89869 0.933192 3.33324
lowerneck -22.5829 2.63854 4.54101
upperneck 28.4242 3.47436 -3.11841
head 13.5178 1.7034 -1.34271
rclavicle -3.29082e-015 5.71506e-015
rhumerus 0 0 0
rradius 0
rwrist 0
rhand 0 0
rfingers 0
rthumb 0 0
lclavicle -3.29082e-015 5.71506e-015
lhumerus 0 0 0
lradius 0
lwrist 0
lhand 0 0
lfingers 0
lthumb 0 0
rfemur 6.73159 -3.72348 14.3961
rtibia 3.69795
rfoot -15.366 -2.79778
rtoes 13.5287
lfemur 11.0762 2.48968 -18.9726
ltibia -0.847772
lfoot -14.5369 19.1983
ltoes -9.46042
4
root -30.3408 17.073 1.14651 22.6549 84.7191 22.4664
lowerback 4.81887 1.55586 -5.92718
upperback 0.967348 1.7929 0.189708
thorax -1.89083 0.935601 3.40427
lowerneck -22.655 2.62045 4.57485
upperneck 28.3866 3.44277 -3.16896
head 13.5174 1.684 -1.37378
rclavicle -1.20824e-015 7.74018e-015
rhumerus 0 0 0
rradius 0
rwrist 0
rhand 0 0
rfingers 0
rthumb 0 0
lclavicle -1.20824e-015 7.74018e-015
lhumerus 0 0 0
lradius 0
lwrist 0
lhand 0 0
lfingers 0
lthumb 0 0
rfemur 7.16634 -3.81029 14.405
rtibia 3.0042
rfoot -15.0029 -2.6779
rtoes 13.2422
lfemur 11.2224 2.06227 -19.0486
ltibia -1.0305
lfoot -14.6512 19.6202
ltoes -8.86882
5
root -30.3385 17.0715 1.14696 20.749 84.7649 20.6267
lowerback 4.87203 1.57138 -5.73779
upperback 0.996731 1.82157 0.244661
thorax -1.88922 0.948263 3.35199
lowerneck -22.8224 2.62396 4.26251
upperneck 28.4786 3.44035 -2.79924
head 13.5761 1.69904 -1.17391
rclavicle 1.60224e-014 -4.66523e-015
rhumerus 0 0 0
rradius 0
rwrist 0
rhand 0 0
rfingers 0
rthumb 0 0
lclavicle 1.60224e-014 -4.66523e-015
lhumerus 0 0 0
lradius 0
lwrist 0
lhand 0 0
lfingers 0
lthumb 0 0
rfemur 7.23796 -3.73011 14.6485
rtibia 3.02577
rfoot -15.0429 -2.67919
rtoes 13.3215
lfemur 11.27 2.34392 -18.7126
ltibia -0.906417
lfoot -14.6358 19.2983
ltoes -8.67413
6
root -30.336 17.0701 1.14734 20.9152 84.7416 20.7639
lowerback 4.67009 1.67177 -5.34749
upperback 1.15767 1.99056 -0.00537008
thorax -1.60518 1.02075 2.87082
lowerneck -22.9451 2.479 4.46019
upperneck 28.3027 3.1536 -2.87361
head 13.5202 1.58005 -1.28863
rclavicle -9.64106e-015 1.44119e-014
rhumerus 0 0 0
rradius 0
rwrist 0
rhand 0 0
rfingers 0
rthumb 0 0
lclavicle -9.64106e-015 1.44119e-014
lhumerus -29.5652 -9.12741 92.2284
lradius 21.968
lwrist -17.1864
lhand -12.7941 -27.1477
lfingers 7.12502
lthumb 13.2916 2.40849
rfemur 6.94078 -3.438 14.7414
rtibia 3.53146
rfoot -15.3948 -2.97889
rtoes 13.2411
lfemur 11.1887 2.79304 -18.568
ltibia -0.764922
lfoot -14.5035 18.8833
ltoes -8.32839
7
root -30.3345 17.0675 1.1502 21.4996 84.7361 21.2647
lowerback 4.64595 1.68018 -5.4173
upperback 1.09196 1.99692 -0.0171504
thorax -1.66205 1.02654 2.89686
lowerneck -22.8827 2.58649 4.68247
upperneck 28.2873 3.29578 -3.07807
head 13.5164 1.63843 -1.3814
rclavicle 9.62863e-016 -2.5842e-015
rhumerus 0 0 0
rradius 0
rwrist 0
rhand 0 0
rfingers 0
rthumb 0 0
lclavicle 9.62863e-016 -2.5842e-015
lhumerus -29.647 -8.97165 92.1728
lradius 22.0084
lwrist -17.348
lhand -12.2927 -27.1401
lfingers 7.12502
lthumb 13.775 2.38385
rfemur 6.72135 -3.32188 14.7551
rtibia 3.7808
rfoot -15.5785 -3.17355
rtoes 12.7329
lfemur 11.0814 2.94503 -18.5553
ltibia -0.728323
lfoot -14.4016 18.7926
ltoes -8.84245
8
root -30.3331 17.0661 1.15258 21.3222 84.7697 21.0707
lowerback 4.65154 1.68027 -5.40096
upperback 1.07276 1.99665 -0.0127245
thorax -1.68461 1.02717 2.8918
lowerneck -22.9046 2.54525 4.76233
upperneck 28.3132 3.22159 -3.12913
head 13.5308 1.60787 -1.42888
rclavicle -7.21216e-015 6.4605e-015
rhumerus 0 0 0
rradius 0
rwrist 0
rhand 0 0
rfingers 0
rthumb 0 0
lclavicle -7.21216e-015 6.4605e-015
lhumerus -29.689 -8.99518 92.1712
lradius 22.0245
lwrist -17.3308
lhand -11.6346 -27.2412
lfingers 7.12502
lthumb 14.4091 2.23868
rfemur 6.73091 -3.29969 14.81
rtibia 3.74303
rfoot -15.5751 -3.2118
rtoes 12.639
lfemur 11.0437 2.97835 -18.5009
ltibia -0.668201
lfoot -14.2471 18.7586
ltoes -10.2515
9
root -30.329 17.0655 1.1542 22.9259 84.7668 22.6545
lowerback 4.57066 1.66274 -5.53661
upperback 1.08834 1.97237 -0.0523562
thorax -1.62406 1.01391 2.93099
lowerneck -22.9849 2.59449 4.71116
upperneck 28.4291 3.30115 -3.08237
head 13.5985 1.64424 -1.38704
rclavicle 6.69656e-015 -1.76421e-014
rhumerus 0 0 0
rradius 0
rwrist 0
rhand 0 0
rfingers 0
rthumb 0 0
lclavicle 6.69656e-015 -1.76421e-014
lhumerus -29.6716 -8.85383 92.117
lradius 22.0171
lwrist -17.4858
lhand -11.6849 -27.2692
lfingers 7.12502
lthumb 14.3607 2.21404
rfemur 6.75901 -3.28606 14.6616
rtibia 3.70985
rfoot -15.4661 -3.27815
rtoes 12.3544
lfemur 11.0895 2.61395 -18.8043
ltibia -0.805308
lfoot -14.2282 19.0739
ltoes -10.7452
10
root -30.324 17.0653 1.15474 25.4323 84.6744 25.1017
lowerback 4.44989 1.65408 -5.77852
upperback 1.07475 1.95655 -0.115078
thorax -1.57465 1.006 3.00578
lowerneck -22.8812 2.54812 4.66073
upperneck 28.3014 3.22912 -3.01761
head 13.517 1.61593 -1.36607
rclavicle 2.51587e-015 -8.00108e-015
rhumerus 0 0 0
rradius 0
rwrist 0
rhand 0 0
rfingers 0
rthumb 0 0
lclavicle 2.51587e-015 -8.00108e-015
lhumerus -29.6936 -8.64857 92.0663
lradius 22.0577
lwrist -17.7596
lhand -13.0373 -27.1731
lfingers 7.12502
lthumb 13.0572 2.39824
rfemur 6.69661 -3.45847 14.3083
rtibia 3.75716
rfoot -15.3514 -3.13127
rtoes 11.9265
lfemur 11.0732 2.30633 -19.2355
ltibia -0.922419
lfoot -14.4534 19.4328
ltoes -10.2899
11
root -30.3211 17.0672 1.15386 27.3914 84.5642 27.0401
lowerback 4.4076 1.66664 -5.98163
upperback 1.05093 1.96567 -0.163876
thorax -1.58131 1.01207 3.06922
lowerneck -22.7685 2.552 4.56288
upperneck 28.2393 3.24209 -2.91304
head 13.464 1.6266 -1.30601
rclavicle -1.20234e-014 1.03368e-014
rhumerus 0 0 0
rradius 0
rwrist 0
rhand 0 0
rfingers 0
rthumb 0 0
lclavicle -1.20234e-014 1.03368e-014
lhumerus -29.7414 -8.67745 92.11
lradius 22.1093
lwrist -17.8281
lhand -12.9904 -27.0548
lfingers 7.12502
lthumb 13.1024 2.51363
rfemur 6.6461 -3.61145 13.9705
rtibia 3.80786
rfoot -15.4126 -2.88
rtoes 12.6704
lfemur 10.9369 2.74399 -19.3629
ltibia -0.696788
lfoot -14.4427 19.0885
ltoes -9.66402
12
root -30.3191 17.07 1.156 28.3905 84.5038 28.0348
lowerback 4.38938 1.68761 -6.11738
upperback 1.04411 1.98838 -0.192837
thorax -1.58379 1.02425 3.11418
lowerneck -22.7037 2.54226 4.54161
upperneck 28.1809 3.21948 -2.86147
head 13.4235 1.62184 -1.2863
rclavicle -4.16205e-015 -8.39865e-015
rhumerus 0 0 0
rradius 0
rwrist 0
rhand 0 0
rfingers 0
rthumb 0 0
lclavicle -4.16205e-015 -8.39865e-015
lhumerus -29.7395 -8.81205 92.1584
lradius 22.1109
lwrist -17.808
lhand -13.212 -26.9746
lfingers 7.12502
lthumb 12.8888 2.60738
rfemur 6.60767 -3.74125 13.7839
rtibia 3.87958
rfoot -15.5064 -2.71265
rtoes 13.0827
lfemur 10.8433 3.13436 -19.3451
ltibia -0.502028
lfoot -14.2818 18.6524
ltoes -10.213
13
root -30.3155 17.0699 1.15889 26.2811 84.5396 25.9199
lowerback 4.36163 1.71888 -5.92159
upperback 1.04348 2.04063 -0.152392
thorax -1.56906 1.0489 3.04381
lowerneck -22.7163 2.53039 4.56971
upperneck 28.2095 3.19408 -2.86568
head 13.4376 1.61369 -1.29736
rclavicle -2.38542e-015 8.44835e-016
rhumerus 0 0 0
rradius 0
rwrist 0
rhand 0 0
rfingers 0
rthumb 0 0
lclavicle -2.38542e-015 8.44835e-016
lhumerus -29.6957 -8.75892 92.1258
lradius 22.0555
lwrist -17.9646
lhand -13.7749 -27.1789
lfingers 7.12502
lthumb 12.3462 2.43656
rfemur 6.57977 -3.76469 14.0244
rtibia 3.94024
rfoot -15.4888 -2.67142
rtoes 12.3568
lfemur 10.8906 3.03763 -19.1138
ltibia -0.547948
lfoot -14.2592 18.7287
ltoes -9.95419
14
root -30.3114 17.0681 1.15993 22.9206 84.6232 22.594
lowerback 4.40624 1.74535 -5.54751
upperback 1.035 2.08934 -0.0910652
thorax -1.59696 1.07228 2.8932
lowerneck -22.7096 2.51595 4.55924
upperneck 28.2352 3.162 -2.81231
head 13.4442 1.60686 -1.28043
rclavicle 2.52519e-014 -5.46658e-015
rhumerus 0 0 0
rradius 0
rwrist 0
rhand 0 0
rfingers 0
rthumb 0 0
lclavicle 2.52519e-014 -5.46658e-015
lhumerus -29.6954 -8.67161 92.0647
lradius 22.0143
lwrist -18.0071
lhand -12.5145 -27.4744
lfingers 7.12502
lthumb 13.5612 2.06395
rfemur 6.64874 -3.52715 14.4847
rtibia 3.88086
rfoot -15.4794 -2.80662
rtoes 12.5054
lfemur 11.0075 2.89622 -18.7494
ltibia -0.60845
lfoot -14.4676 18.8626
ltoes -9.08481
15
root -30.3074 17.0676 1.16056 22.6334 84.6025 22.3584
lowerback 4.44535 1.75709 -5.52199
upperback 1.05825 2.10469 -0.0923783
thorax -1.59529 1.07948 2.87584
lowerneck -22.7689 2.53016 4.52694
upperneck 28.2667 3.16338 -2.72373
head 13.4675 1.61589 -1.23944
rclavicle -1.99406e-015 1.06847e-014
rhumerus 0 0 0
rradius 0
rwrist 0
rhand 0 0
rfingers 0
rthumb 0 0
lclavicle -1.99406e-015 1.06847e-014
lhumerus -29.6705 -8.74683 92.0794
lradius 21.9881
lwrist -17.8216
lhand -11.8326 -27.6127
lfingers 7.12502
lthumb 14.2183 1.88067
rfemur 6.73637 -3.47772 14.5031
rtibia 3.84337
rfoot -15.4703 -2.84202
rtoes 12.9396
lfemur 11.0897 2.90163 -18.7293
ltibia -0.587736
lfoot -14.6457 18.8526
ltoes -8.87481
16
root -30.3031 17.0677 1.16023 24.2257 84.5189 24.0014
lowerback 4.43899 1.75915 -5.70904
upperback 1.09291 2.10091 -0.125123
thorax -1.56077 1.07707 2.94778
lowerneck -22.7906 2.54508 4.45761
upperneck 28.2583 3.18046 -2.63624
head 13.4661 1.62742 -1.18984
rclavicle -6.85186e-015 2.48481e-016
rhumerus 0 0 0
rradius 0
rwrist 0
rhand 0 0
rfingers 0
rthumb 0 0
lclavicle -6.85186e-015 2.48481e-016
lhumerus -29.6383 -8.88869 92.1648
lradius 21.9559
lwrist -17.7208
lhand -11.8853 -27.5082
lfingers 7.12502
lthumb 14.1675 1.98872
rfemur 6.78568 -3.63942 14.2272
rtibia 3.89983
rfoot -15.456 -2.7114
rtoes 12.9224
lfemur 11.1531 2.98971 -18.9389
ltibia -0.587134
lfoot -14.4643 18.8523
ltoes -10.0553
17
root -30.299 17.0677 1.15878 25.0075 84.4785 24.8197
lowerback 4.43021 1.76545 -5.77188
upperback 1.09855 2.10724 -0.145526
thorax -1.55203 1.08022 2.96182
lowerneck -22.7341 2.55148 4.38229
upperneck 28.2307 3.20889 -2.5981
head 13.4417 1.6375 -1.15708
rclavicle -3.35449e-015 1.51573e-014
rhumerus 0 0 0
rradius 0
rwrist 0
rhand 0 0
rfingers 0
rthumb 0 0
lclavicle -3.35449e-015 1.51573e-014
lhumerus -29.6684 -8.94418 92.2159
lradius 21.9683
lwrist -17.7559
lhand -12.3426 -27.2807
lfingers 7.12502
lthumb 13.7269 2.24654
rfemur 6.83395 -3.66694 14.0983
rtibia 3.90477
rfoot -15.4662 -2.63765
rtoes 13.0706
lfemur 11.2269 3.00186 -19.0624
ltibia -0.629439
lfoot -14.3384 18.842
ltoes -10.2413
